<svg xmlns="http://www.w3.org/2000/svg" width="1365.333" height="1365.333" viewBox="0 0 1024 1024"><path d="M0 512v512h1024V0H0zm491.5-260c32.2 4.7 56.9 23 65.2 48.5 3.3 10.3 3.7 28.2.9 38.5-6.5 23.6-26.5 41.7-54.1 48.9-4.3 1.2-8 2.3-8.2 2.5-.3.2 7.6 11.4 17.6 24.7l18 24.3-3.4 4.6c-2 2.8-6.4 6.5-11.6 9.7-4.6 2.9-8.6 5.3-8.9 5.3-.6 0-10.6-13.4-55.4-74-31.8-43.1-43.7-58.2-50.8-64.3l-5.3-4.6-.5 23.7-.5 23.6-4.9 1.2c-7 1.8-17 6.9-23.2 12-2.9 2.4-5.5 4.4-5.6 4.4-.2 0-.3-19.2-.3-42.6v-42.7l14 .6c15.7.7 27.6 3 38.6 7.6 19.9 8.4 30.9 18.5 53.9 49.4l15.5 20.8 3.5-.5c5.7-.9 15.7-6.4 21.9-12.2 24.2-22.3 20.7-68.6-6.5-86-2.9-1.9-8.8-4.6-13.1-6.1l-7.8-2.8-55.5-.5c-39.2-.4-56.3-.9-58.1-1.7-3.8-1.7-9.7-7.1-11.5-10.4l-1.5-2.9h65.3c38.3 0 68.2.5 72.3 1M662 285.6c0 .4-12.1 24.6-26.9 53.8C571.5 465 542.8 523 533.3 545.3c-8.1 19.1-8.3 29.1-1 43.9 6 11.9 7 16.7 6.5 28.1-1.6 32.7-32.7 57.9-62.2 50.2-35.3-9.2-42.8-57.2-13.1-84.3 7.2-6.6 14.5-10.3 25.5-13.1 5.3-1.3 10.4-3.4 13.7-5.6 18.8-12.5 26.4-40.9 19-70.8-1.5-6-2.7-11.8-2.7-13.1 0-1.2 7-12.5 15.6-25.1 8.6-12.7 31.2-46 50.2-74 61.4-90.7 62.7-92.4 68.7-95.1 3.1-1.4 8.5-1.9 8.5-.8m61 59.2c-.1 3.8-3.2 10.1-7.1 14.3-2.6 2.9-71.5 63.4-131.6 115.7l-6.3 5.4 4.9-10.3c2.6-5.7 9.6-19.9 15.4-31.4l10.5-21 11.8-8c6.6-4.4 26.8-18.1 44.9-30.5 18.2-12.3 38.1-25.9 44.4-30.2 6.3-4.2 11.8-7.5 12.2-7.2.5.3.9 1.7.9 3.2m-287.3 39.6c2.9 3.7 5.3 7.1 5.3 7.5 0 .3-4 .7-8.9.8-4.9 0-11.6.9-15.2 1.9-5.3 1.5-7.3 2.7-12 7.3-8.8 8.9-9.2 10.6-9.7 42.7l-.3 27-6.1 1.3c-8.2 1.7-15.3 4.4-22.2 8.6-3.2 1.9-5.9 3.5-6 3.5 0 0 .1-15.6.4-34.7.6-36.8.6-36.8 5.8-46.9 8.7-17 29.3-26.5 56.2-26l7.4.1zm72.3 91.2c-1.5 3.8-1.2 8 1 16.4 1.1 4.1 2 8 2 8.6 0 .7-3.4 1.4-8.7 1.8-31 2.5-50.2 16.6-55.9 41.2-2.5 11.1-6.9 19-14.9 27-18.2 18.1-43.7 21.4-63.5 8.2l-6.3-4.1-10.1 3.4c-9 3-11.2 3.4-20.6 3.3-8.4 0-11.6-.5-16.2-2.2-9.2-3.7-12.3-6.2-12.6-10.4-.3-3.1.1-4 2.3-5.4 2.4-1.5 3.1-1.6 5.9-.4 8.8 3.7 16.5 6 20.2 6 5.6 0 13.8-2.6 17.1-5.4l2.8-2.4v-30.7l3.7-7.9c2.9-6.1 5.5-9.5 11.5-15.5 11-10.8 23.1-16.1 36.8-16.1 8.9.1 13.9 1.5 25.4 7.3 9.8 4.9 10.9 5.2 17.5 5.1 8-.1 13.6-1.8 25.1-7.6 8.3-4.2 28.8-16.5 34-20.5 3.9-2.9 4.7-2.9 3.5.3m86.6 52.9c8.6 11.5 15.8 21.1 15.9 21.3.2.2 3.5-.7 7.5-1.9 16-4.8 33.3-.5 46 11.7 7.6 7.3 11.6 13.5 14.6 22.9 7.4 23.4-2.5 48.4-23.2 58.6-5.8 2.9-8 3.4-16 3.7-11.5.5-20.2-1.8-29.3-7.9-8-5.3-13.2-11.5-18.3-21.7-3.9-7.8-4.2-8.8-4.6-19-.3-7.5 0-12.4 1.1-16.4l1.5-5.7-15.2-20.3c-8.3-11.2-16.1-21.7-17.4-23.5l-2.2-3.1 7.5-15.7 7.5-15.8 4.5 5.9c2.4 3.2 11.5 15.3 20.1 26.9m-15 191.7c9.2 5 12.6 16.4 7.8 26-1.1 2.1-5 5.7-9.3 8.5-.2.1 2.1 3.7 5.1 8 7.8 11.1 7.6 10.3 2.1 10.3l-4.8-.1-5.8-8.4-5.8-8.5H552v17h-9v-55.5l16.7.5c13.3.4 17.5.9 19.9 2.2m102 0c13.4 7.3 13.6 24.4.4 32.9l-2.4 1.6 6.6 8.9 6.7 8.9-4.1.3c-2.2.2-4.6.1-5.3-.2-.7-.2-3.8-4.1-6.9-8.5L671 756h-17v17h-9v-55.5l16.7.5c13.2.4 17.5.9 19.9 2.2m60.3-1c.5 1.3 5.2 11.5 10.6 22.8s10.8 22.9 12.1 25.7l2.4 5.3h-9.8l-2.7-6.5-2.8-6.5h-30.3l-3.2 6.5-3.2 6.5h-8.9l2.8-6.3c7.7-17 18.6-40.7 20.6-44.8 2.2-4.3 2.6-4.5 6.9-4.8 4-.2 4.7.1 5.5 2.1m40.8-.9c.2.3 3.9 6.2 8.1 13.2 4.2 6.9 8.2 12.7 8.7 12.7.6.1 4.6-5.7 9-12.8 8-12.7 8.1-12.9 12.5-13.6 2.4-.4 4.6-.6 4.8-.3.3.2-4.6 8.3-10.7 17.9L804 752.9V773h-9v-19.3L784 736c-6-9.7-11-17.9-11-18.1 0-.5 9.1-.1 9.7.4m-546 1.7c5.9 2.6 8.5 7.1 8 13.4-.4 4.1-1 5.5-3.7 7.9-1.7 1.5-3 2.9-2.8 3.1.1.1 1.5.8 2.9 1.5 3.4 1.7 6.9 7.9 6.9 12.2 0 5.1-3 10-7.5 12.3-3.6 1.9-6.1 2.1-23.2 2.4l-19.3.4V718h17.3c14.8 0 17.8.3 21.4 2m64.5 8.3c2.6 5.6 8.4 17.8 12.8 27.1s8 17.1 8 17.3c0 .1-2 .3-4.5.3H313l-3.3-6.7-3.2-6.6-14.8-.1c-9-.1-15.2.3-15.6.9-.4.5-1.8 3.6-3.1 6.7l-2.4 5.8h-9.4l12.7-27.5 12.6-27.5 5 .1h5zm75.6-7.7c2.9 1.4 6.1 3.9 7.3 5.6 2.4 3.4 3.5 9.9 2.5 15.2-.7 3.5-5.9 9.9-9.9 12.1-1.7.9-1.4 1.7 3.8 9 3.2 4.4 6.2 8.6 6.7 9.2.8 1-.1 1.3-4 1.3h-5.1l-5.8-8.5-5.8-8.5H349v17h-9v-55h15.8c15 0 16.1.1 21 2.6m70.8-.7c2.3 1 4.9 2.9 5.8 4.2 3.8 5.5 2.8 14-2.2 18-1.9 1.6-2.3 2.3-1.3 2.7.7.2 2.7 1.7 4.4 3.2 2.7 2.4 3.1 3.5 3.5 9.4.4 6.4.3 6.7-3 10-1.9 1.9-5.2 3.9-7.3 4.5-2.2.6-11.8 1.1-21.2 1.1H409v-55h17.3c14.6 0 17.8.3 21.3 1.9m73.4 1.6v3.5h-33v16h29v7.5h-28.5l-.3 8.7-.3 8.8H522v7h-42.5l-.2-27.5-.3-27.5h42z"/><path d="M538.9 467.9c-2.1 2.2-2.9 3.9-2.9 6.6s.8 4.4 2.9 6.6c2.2 2.1 3.9 2.9 6.6 2.9s4.4-.8 6.6-2.9c2.1-2.2 2.9-3.9 2.9-6.6s-.8-4.4-2.9-6.6c-2.2-2.1-3.9-2.9-6.6-2.9s-4.4.8-6.6 2.9m-51.4 116.4c-7.3 2.5-12 5.4-17.1 10.9-15.3 16.2-16.3 39.2-2.3 52.3 9.8 9.1 22 10.5 35.3 3.8 12.8-6.5 22.5-22.3 22.6-36.9 0-6.6-3.5-16.5-7.6-21.2-7.1-8.3-20.7-12.2-30.9-8.9m-91.4-79.2c-16.5 2.8-31.5 18.9-32.8 35.3-1.5 18.5 11.4 32.7 29.8 32.7 16.7 0 29.9-8.5 37.2-24 2.8-5.7 3.2-7.6 3.1-14.6-.1-9.7-1.7-13.7-7.9-20.4-7.1-7.6-17.9-10.9-29.4-9M624 560.4c-20.1 5.4-29.8 29.3-20.1 49.1 15.7 31.8 57 28.6 63.2-4.9 3.5-19.1-10.1-39.8-29-44.2-6.7-1.6-8.2-1.6-14.1 0m-72 176.7v12.1l9.8-.4c14.3-.6 18.5-3.5 18.5-12.5 0-8.2-5.2-11.3-18.8-11.3H552zm102 .1v12.1l10.1-.7c14.5-.9 18.2-3.4 18.2-12.3 0-8.2-5.2-11.3-18.8-11.3H654zm76.2 2c-2.9 6.8-5.2 12.6-5.2 13 0 .5 5.2.8 11.6.8 8.9 0 11.5-.3 11.1-1.3-2.3-6-11.2-24.7-11.6-24.7s-3 5.5-5.9 12.2m-523-6.6.3 8.9 11.5-.3c14.1-.3 16.5-1.5 16.5-8.2 0-3.5-.5-4.7-2.8-6.4-2.4-1.8-4.6-2.1-14.3-2.5l-11.5-.3zM207 757v9h12.8c10.3 0 13.2-.3 15.2-1.7 3.3-2.3 4-3.3 4-6.6 0-7.5-4.5-9.7-20.5-9.7H207zm83.4-29.4c-.4 1-2.9 6.8-5.6 12.8-2.6 6-4.8 11.3-4.8 11.8 0 .4 5.2.8 11.5.8s11.5-.4 11.5-.9c0-.8-10.9-25.2-11.6-26-.2-.2-.7.5-1 1.5M349 737v12h8.3c4.5 0 9.9-.5 11.9-1 9.8-2.8 12.1-15.8 3.6-21-2.7-1.6-5.1-2-13.5-2H349zm69.8-12.4c-.5.4-.8 4.6-.8 9.2v8.5l11.7-.7c7.7-.4 12.5-1.1 14-2.1 4.4-2.9 4.3-10.2-.2-13.1-2.7-1.8-23.3-3.3-24.7-1.8m-.8 32.3v9.1h12.3c13.4 0 16.4-.9 18.5-5.3 1-2.1 1.1-3.5.3-6-1.8-5.3-4.1-6.1-18.3-6.5l-12.8-.4z"/></svg>